ffmpeg started on 2025-06-27 at 11:58:42
Report written to "D:\Convert\FFMetrics\reports\ssim_report-6.txt"
Log level: 32
Command line:
ffmpeg -hide_banner -nostdin -i "G:\\\xc0\xed\xe8\xec\xe5\\[\xd2\xee\xef]\\\xc2\xee\xeb\xf8\xe5\xe1\xed\xfb\xe9 \xf3\xf7\xe8\xf2\xe5\xeb\xfc \xcd\xfd\xe3\xe8\xec\xe0 - \xd5\xf0\xe0\xed\xe8\xf2\xe5\xeb\xfc \xe2\xe5\xf7\xed\xee\xf1\xf2\xe8\\OVA\\[OVA] \xd5\xf0\xe0\xed\xe8\xf2\xe5\xeb\xfc \xe2\xe5\xf7\xed\xee\xf1\xf2\xe8! - 1_HEVC.mkv" -i "G:\\\xc0\xed\xe8\xec\xe5\\[\xd2\xee\xef]\\\xc2\xee\xeb\xf8\xe5\xe1\xed\xfb\xe9 \xf3\xf7\xe8\xf2\xe5\xeb\xfc \xcd\xfd\xe3\xe8\xec\xe0 - \xd5\xf0\xe0\xed\xe8\xf2\xe5\xeb\xfc \xe2\xe5\xf7\xed\xee\xf1\xf2\xe8\\OVA\\[OVA] \xd5\xf0\xe0\xed\xe8\xf2\xe5\xeb\xfc \xe2\xe5\xf7\xed\xee\xf1\xf2\xe8! - 1.mp4" -lavfi "[0:v]settb=AVTB,setpts=PTS-STARTPTS,format=pix_fmts=yuv420p10,fps=25/1,scale=852:480:flags=bicubic[main];[1:v]settb=AVTB,setpts=PTS-STARTPTS,format=pix_fmts=yuv420p,fps=25/1,scale=852:480:flags=bicubic[ref];[main][ref]ssim=eof_action=endall:stats_file='D\\:/Convert/FFMetrics/logs/ssim_logfile-6.txt'" -f null -
Input #0, matroska,webm, from 'G:\Аниме\[Топ]\Волшебный учитель Нэгима - Хранитель вечности\OVA\[OVA] Хранитель вечности! - 1_HEVC.mkv':
  Metadata:
    COMPATIBLE_BRANDS: isomiso2avc1mp41
    MAJOR_BRAND     : isom
    MINOR_VERSION   : 512
    ENCODER         : Lavf61.7.100
  Duration: 00:22:26.08, start: -0.021000, bitrate: 478 kb/s
  Stream #0:0: Video: hevc (Main 10), yuv420p10le(tv, bt709, progressive), 852x480 [SAR 1:1 DAR 71:40], 25 fps, 25 tbr, 1k tbn (default)
      Metadata:
        HANDLER_NAME    : VideoHandler
        VENDOR_ID       : [0][0][0][0]
        ENCODER         : Lavc61.19.100 libx265
        BPS             : 319149
        DURATION        : 00:22:26.000000000
        NUMBER_OF_FRAMES: 33650
        NUMBER_OF_BYTES : 53696846
        _STATISTICS_WRITING_APP: mkvpropedit v66.0.0 ('Josie') 64-bit
        _STATISTICS_WRITING_DATE_UTC: 2025-06-27 08:18:08
        _STATISTICS_TAGS: BPS DURATION NUMBER_OF_FRAMES NUMBER_OF_BYTES
  Stream #0:1(eng): Audio: aac (LC), 48000 Hz, mono, fltp (default)
      Metadata:
        HANDLER_NAME    : SoundHandler
        VENDOR_ID       : [0][0][0][0]
        ENCODER         : Lavc61.19.100 aac
        BPS             : 155555
        DURATION        : 00:22:26.069000000
        NUMBER_OF_FRAMES: 63098
        NUMBER_OF_BYTES : 26173618
        _STATISTICS_WRITING_APP: mkvpropedit v66.0.0 ('Josie') 64-bit
        _STATISTICS_WRITING_DATE_UTC: 2025-06-27 08:18:08
        _STATISTICS_TAGS: BPS DURATION NUMBER_OF_FRAMES NUMBER_OF_BYTES
Input #1, mov,mp4,m4a,3gp,3g2,mj2, from 'G:\Аниме\[Топ]\Волшебный учитель Нэгима - Хранитель вечности\OVA\[OVA] Хранитель вечности! - 1.mp4':
  Metadata:
    major_brand     : isom
    minor_version   : 512
    compatible_brands: isomiso2avc1mp41
    encoder         : Lavf57.83.100
  Duration: 00:22:26.05, start: 0.000000, bitrate: 783 kb/s
  Stream #1:0[0x1](und): Video: h264 (High) (avc1 / 0x31637661), yuv420p(progressive), 852x480 [SAR 1:1 DAR 71:40], 713 kb/s, 25 fps, 25 tbr, 12800 tbn (default)
      Metadata:
        handler_name    : VideoHandler
        vendor_id       : [0][0][0][0]
  Stream #1:1[0x2](eng): Audio: aac (LC) (mp4a / 0x6134706D), 44100 Hz, mono, fltp, 64 kb/s (default)
      Metadata:
        handler_name    : SoundHandler
        vendor_id       : [0][0][0][0]
Stream mapping:
  Stream #0:0 (hevc) -> settb:default
  Stream #1:0 (h264) -> settb:default
  ssim:default -> Stream #0:0 (wrapped_avframe)
  Stream #0:1 -> #0:1 (aac (native) -> pcm_s16le (native))
[swscaler @ 0000027aada645c0] No accelerated colorspace conversion found from yuv420p to bgr48le.
[swscaler @ 0000027aadab20c0] No accelerated colorspace conversion found from yuv420p to bgr48le.
[swscaler @ 0000027aadb1eac0] No accelerated colorspace conversion found from yuv420p to bgr48le.
[swscaler @ 0000027aadb65280] No accelerated colorspace conversion found from yuv420p to bgr48le.
[swscaler @ 0000027aadbbbd80] No accelerated colorspace conversion found from yuv420p to bgr48le.
[swscaler @ 0000027aadc20c00] No accelerated colorspace conversion found from yuv420p to bgr48le.
[swscaler @ 0000027aadc72f00] No accelerated colorspace conversion found from yuv420p to bgr48le.
[swscaler @ 0000027aadcbef40] No accelerated colorspace conversion found from yuv420p to bgr48le.
[swscaler @ 0000027aadcffe80] No accelerated colorspace conversion found from yuv420p to bgr48le.
[swscaler @ 0000027aadd7c040] No accelerated colorspace conversion found from yuv420p to bgr48le.
[swscaler @ 0000027aadda9440] No accelerated colorspace conversion found from yuv420p to bgr48le.
[swscaler @ 0000027aade05040] No accelerated colorspace conversion found from yuv420p to bgr48le.
[swscaler @ 0000027aade81040] No accelerated colorspace conversion found from yuv420p to bgr48le.
[swscaler @ 0000027aadeb0380] No accelerated colorspace conversion found from yuv420p to bgr48le.
[swscaler @ 0000027aadf0c040] No accelerated colorspace conversion found from yuv420p to bgr48le.
[swscaler @ 0000027aadf3f740] No accelerated colorspace conversion found from yuv420p to bgr48le.
Output #0, null, to 'pipe:':
  Metadata:
    COMPATIBLE_BRANDS: isomiso2avc1mp41
    MAJOR_BRAND     : isom
    MINOR_VERSION   : 512
    encoder         : Lavf61.7.100
  Stream #0:0: Video: wrapped_avframe, yuv420p10le(tv, bt709, progressive), 852x480 [SAR 1:1 DAR 71:40], q=2-31, 200 kb/s, 25 fps, 25 tbn
      Metadata:
        encoder         : Lavc61.19.100 wrapped_avframe
  Stream #0:1(eng): Audio: pcm_s16le, 48000 Hz, mono, s16, 768 kb/s (default)
      Metadata:
        HANDLER_NAME    : SoundHandler
        VENDOR_ID       : [0][0][0][0]
        _STATISTICS_TAGS: BPS DURATION NUMBER_OF_FRAMES NUMBER_OF_BYTES
        BPS             : 155555
        DURATION        : 00:22:26.069000000
        NUMBER_OF_FRAMES: 63098
        NUMBER_OF_BYTES : 26173618
        _STATISTICS_WRITING_APP: mkvpropedit v66.0.0 ('Josie') 64-bit
        _STATISTICS_WRITING_DATE_UTC: 2025-06-27 08:18:08
        encoder         : Lavc61.19.100 pcm_s16le
frame=  237 fps=0.0 q=-0.0 size=N/A time=00:00:09.48 bitrate=N/A speed=18.5x    frame=  504 fps=489 q=-0.0 size=N/A time=00:00:20.16 bitrate=N/A speed=19.5x    frame=  759 fps=492 q=-0.0 size=N/A time=00:00:30.36 bitrate=N/A speed=19.7x    frame= 1023 fps=498 q=-0.0 size=N/A time=00:00:40.92 bitrate=N/A speed=19.9x    frame= 1279 fps=496 q=-0.0 size=N/A time=00:00:51.16 bitrate=N/A speed=19.8x    frame= 1547 fps=500 q=-0.0 size=N/A time=00:01:01.88 bitrate=N/A speed=  20x    frame= 1808 fps=500 q=-0.0 size=N/A time=00:01:12.32 bitrate=N/A speed=  20x    frame= 2070 fps=502 q=-0.0 size=N/A time=00:01:22.80 bitrate=N/A speed=20.1x    frame= 2329 fps=502 q=-0.0 size=N/A time=00:01:33.16 bitrate=N/A speed=20.1x    frame= 2602 fps=504 q=-0.0 size=N/A time=00:01:44.08 bitrate=N/A speed=20.2x    frame= 2860 fps=504 q=-0.0 size=N/A time=00:01:54.40 bitrate=N/A speed=20.2x    frame= 3116 fps=504 q=-0.0 size=N/A time=00:02:04.64 bitrate=N/A speed=20.2x    frame= 3387 fps=505 q=-0.0 size=N/A time=00:02:15.48 bitrate=N/A speed=20.2x    frame= 3643 fps=505 q=-0.0 size=N/A time=00:02:25.72 bitrate=N/A speed=20.2x    frame= 3908 fps=505 q=-0.0 size=N/A time=00:02:36.32 bitrate=N/A speed=20.2x    frame= 4157 fps=504 q=-0.0 size=N/A time=00:02:46.28 bitrate=N/A speed=20.2x    frame= 4428 fps=505 q=-0.0 size=N/A time=00:02:57.12 bitrate=N/A speed=20.2x    frame= 4687 fps=505 q=-0.0 size=N/A time=00:03:07.48 bitrate=N/A speed=20.2x    frame= 4944 fps=505 q=-0.0 size=N/A time=00:03:17.76 bitrate=N/A speed=20.2x    frame= 5205 fps=505 q=-0.0 size=N/A time=00:03:28.20 bitrate=N/A speed=20.2x    frame= 5470 fps=505 q=-0.0 size=N/A time=00:03:38.80 bitrate=N/A speed=20.2x    frame= 5731 fps=505 q=-0.0 size=N/A time=00:03:49.24 bitrate=N/A speed=20.2x    frame= 5987 fps=505 q=-0.0 size=N/A time=00:03:59.48 bitrate=N/A speed=20.2x    frame= 6251 fps=505 q=-0.0 size=N/A time=00:04:10.04 bitrate=N/A speed=20.2x    frame= 6502 fps=505 q=-0.0 size=N/A time=00:04:20.08 bitrate=N/A speed=20.2x    frame= 6773 fps=505 q=-0.0 size=N/A time=00:04:30.92 bitrate=N/A speed=20.2x    frame= 7039 fps=505 q=-0.0 size=N/A time=00:04:41.56 bitrate=N/A speed=20.2x    frame= 7299 fps=506 q=-0.0 size=N/A time=00:04:51.96 bitrate=N/A speed=20.2x    frame= 7566 fps=506 q=-0.0 size=N/A time=00:05:02.64 bitrate=N/A speed=20.2x    frame= 7833 fps=506 q=-0.0 size=N/A time=00:05:13.32 bitrate=N/A speed=20.2x    frame= 8103 fps=506 q=-0.0 size=N/A time=00:05:24.12 bitrate=N/A speed=20.3x    frame= 8351 fps=506 q=-0.0 size=N/A time=00:05:34.04 bitrate=N/A speed=20.2x    frame= 8616 fps=506 q=-0.0 size=N/A time=00:05:44.64 bitrate=N/A speed=20.2x    frame= 8883 fps=506 q=-0.0 size=N/A time=00:05:55.32 bitrate=N/A speed=20.2x    frame= 9150 fps=507 q=-0.0 size=N/A time=00:06:06.00 bitrate=N/A speed=20.3x    frame= 9409 fps=507 q=-0.0 size=N/A time=00:06:16.36 bitrate=N/A speed=20.3x    frame= 9678 fps=507 q=-0.0 size=N/A time=00:06:27.12 bitrate=N/A speed=20.3x    frame= 9944 fps=507 q=-0.0 size=N/A time=00:06:37.76 bitrate=N/A speed=20.3x    frame=10196 fps=506 q=-0.0 size=N/A time=00:06:47.84 bitrate=N/A speed=20.3x    frame=10473 fps=507 q=-0.0 size=N/A time=00:06:58.92 bitrate=N/A speed=20.3x    frame=10731 fps=507 q=-0.0 size=N/A time=00:07:09.24 bitrate=N/A speed=20.3x    frame=10996 fps=507 q=-0.0 size=N/A time=00:07:19.84 bitrate=N/A speed=20.3x    frame=11259 fps=507 q=-0.0 size=N/A time=00:07:30.36 bitrate=N/A speed=20.3x    frame=11529 fps=507 q=-0.0 size=N/A time=00:07:41.16 bitrate=N/A speed=20.3x    frame=11795 fps=507 q=-0.0 size=N/A time=00:07:51.80 bitrate=N/A speed=20.3x    frame=12057 fps=507 q=-0.0 size=N/A time=00:08:02.28 bitrate=N/A speed=20.3x    frame=12311 fps=507 q=-0.0 size=N/A time=00:08:12.44 bitrate=N/A speed=20.3x    frame=12575 fps=507 q=-0.0 size=N/A time=00:08:23.00 bitrate=N/A speed=20.3x    frame=12843 fps=508 q=-0.0 size=N/A time=00:08:33.72 bitrate=N/A speed=20.3x    frame=13105 fps=507 q=-0.0 size=N/A time=00:08:44.20 bitrate=N/A speed=20.3x    frame=13369 fps=508 q=-0.0 size=N/A time=00:08:54.76 bitrate=N/A speed=20.3x    frame=13636 fps=508 q=-0.0 size=N/A time=00:09:05.44 bitrate=N/A speed=20.3x    frame=13891 fps=507 q=-0.0 size=N/A time=00:09:15.64 bitrate=N/A speed=20.3x    frame=14151 fps=507 q=-0.0 size=N/A time=00:09:26.04 bitrate=N/A speed=20.3x    frame=14422 fps=508 q=-0.0 size=N/A time=00:09:36.88 bitrate=N/A speed=20.3x    frame=14684 fps=508 q=-0.0 size=N/A time=00:09:47.36 bitrate=N/A speed=20.3x    frame=14946 fps=508 q=-0.0 size=N/A time=00:09:57.84 bitrate=N/A speed=20.3x    frame=15212 fps=508 q=-0.0 size=N/A time=00:10:08.48 bitrate=N/A speed=20.3x    frame=15469 fps=508 q=-0.0 size=N/A time=00:10:18.76 bitrate=N/A speed=20.3x    frame=15734 fps=508 q=-0.0 size=N/A time=00:10:29.36 bitrate=N/A speed=20.3x    frame=16004 fps=508 q=-0.0 size=N/A time=00:10:40.16 bitrate=N/A speed=20.3x    frame=16262 fps=508 q=-0.0 size=N/A time=00:10:50.48 bitrate=N/A speed=20.3x    frame=16516 fps=508 q=-0.0 size=N/A time=00:11:00.64 bitrate=N/A speed=20.3x    frame=16775 fps=508 q=-0.0 size=N/A time=00:11:11.00 bitrate=N/A speed=20.3x    frame=17041 fps=508 q=-0.0 size=N/A time=00:11:21.64 bitrate=N/A speed=20.3x    frame=17297 fps=508 q=-0.0 size=N/A time=00:11:31.88 bitrate=N/A speed=20.3x    frame=17559 fps=508 q=-0.0 size=N/A time=00:11:42.36 bitrate=N/A speed=20.3x    frame=17830 fps=508 q=-0.0 size=N/A time=00:11:53.20 bitrate=N/A speed=20.3x    frame=18088 fps=508 q=-0.0 size=N/A time=00:12:03.52 bitrate=N/A speed=20.3x    frame=18340 fps=508 q=-0.0 size=N/A time=00:12:13.60 bitrate=N/A speed=20.3x    frame=18611 fps=508 q=-0.0 size=N/A time=00:12:24.44 bitrate=N/A speed=20.3x    frame=18870 fps=508 q=-0.0 size=N/A time=00:12:34.80 bitrate=N/A speed=20.3x    frame=19141 fps=508 q=-0.0 size=N/A time=00:12:45.64 bitrate=N/A speed=20.3x    frame=19389 fps=508 q=-0.0 size=N/A time=00:12:55.56 bitrate=N/A speed=20.3x    frame=19650 fps=508 q=-0.0 size=N/A time=00:13:06.00 bitrate=N/A speed=20.3x    frame=19908 fps=507 q=-0.0 size=N/A time=00:13:16.32 bitrate=N/A speed=20.3x    frame=20176 fps=508 q=-0.0 size=N/A time=00:13:27.04 bitrate=N/A speed=20.3x    frame=20430 fps=507 q=-0.0 size=N/A time=00:13:37.20 bitrate=N/A speed=20.3x    frame=20693 fps=507 q=-0.0 size=N/A time=00:13:47.72 bitrate=N/A speed=20.3x    frame=20967 fps=508 q=-0.0 size=N/A time=00:13:58.68 bitrate=N/A speed=20.3x    frame=21223 fps=508 q=-0.0 size=N/A time=00:14:08.92 bitrate=N/A speed=20.3x    frame=21482 fps=508 q=-0.0 size=N/A time=00:14:19.28 bitrate=N/A speed=20.3x    frame=21746 fps=507 q=-0.0 size=N/A time=00:14:29.84 bitrate=N/A speed=20.3x    frame=22022 fps=508 q=-0.0 size=N/A time=00:14:40.88 bitrate=N/A speed=20.3x    frame=22281 fps=508 q=-0.0 size=N/A time=00:14:51.24 bitrate=N/A speed=20.3x    frame=22541 fps=508 q=-0.0 size=N/A time=00:15:01.64 bitrate=N/A speed=20.3x    frame=22806 fps=508 q=-0.0 size=N/A time=00:15:12.24 bitrate=N/A speed=20.3x    frame=23076 fps=508 q=-0.0 size=N/A time=00:15:23.04 bitrate=N/A speed=20.3x    frame=23336 fps=508 q=-0.0 size=N/A time=00:15:33.44 bitrate=N/A speed=20.3x    frame=23603 fps=508 q=-0.0 size=N/A time=00:15:44.12 bitrate=N/A speed=20.3x    frame=23862 fps=508 q=-0.0 size=N/A time=00:15:54.48 bitrate=N/A speed=20.3x    frame=24122 fps=508 q=-0.0 size=N/A time=00:16:04.88 bitrate=N/A speed=20.3x    frame=24379 fps=508 q=-0.0 size=N/A time=00:16:15.16 bitrate=N/A speed=20.3x    frame=24645 fps=508 q=-0.0 size=N/A time=00:16:25.80 bitrate=N/A speed=20.3x    frame=24898 fps=508 q=-0.0 size=N/A time=00:16:35.92 bitrate=N/A speed=20.3x    frame=25177 fps=508 q=-0.0 size=N/A time=00:16:47.08 bitrate=N/A speed=20.3x    frame=25437 fps=508 q=-0.0 size=N/A time=00:16:57.48 bitrate=N/A speed=20.3x    frame=25701 fps=508 q=-0.0 size=N/A time=00:17:08.04 bitrate=N/A speed=20.3x    frame=25965 fps=508 q=-0.0 size=N/A time=00:17:18.60 bitrate=N/A speed=20.3x    frame=26231 fps=508 q=-0.0 size=N/A time=00:17:29.24 bitrate=N/A speed=20.3x    frame=26483 fps=508 q=-0.0 size=N/A time=00:17:39.32 bitrate=N/A speed=20.3x    frame=26749 fps=508 q=-0.0 size=N/A time=00:17:49.96 bitrate=N/A speed=20.3x    frame=27020 fps=508 q=-0.0 size=N/A time=00:18:00.80 bitrate=N/A speed=20.3x    frame=27281 fps=508 q=-0.0 size=N/A time=00:18:11.24 bitrate=N/A speed=20.3x    frame=27534 fps=508 q=-0.0 size=N/A time=00:18:21.36 bitrate=N/A speed=20.3x    frame=27803 fps=508 q=-0.0 size=N/A time=00:18:32.12 bitrate=N/A speed=20.3x    frame=28061 fps=508 q=-0.0 size=N/A time=00:18:42.44 bitrate=N/A speed=20.3x    frame=28327 fps=508 q=-0.0 size=N/A time=00:18:53.08 bitrate=N/A speed=20.3x    frame=28591 fps=508 q=-0.0 size=N/A time=00:19:03.64 bitrate=N/A speed=20.3x    frame=28852 fps=508 q=-0.0 size=N/A time=00:19:14.08 bitrate=N/A speed=20.3x    frame=29113 fps=508 q=-0.0 size=N/A time=00:19:24.52 bitrate=N/A speed=20.3x    frame=29370 fps=508 q=-0.0 size=N/A time=00:19:34.80 bitrate=N/A speed=20.3x    frame=29625 fps=508 q=-0.0 size=N/A time=00:19:45.00 bitrate=N/A speed=20.3x    frame=29890 fps=508 q=-0.0 size=N/A time=00:19:55.60 bitrate=N/A speed=20.3x    frame=30149 fps=507 q=-0.0 size=N/A time=00:20:05.96 bitrate=N/A speed=20.3x    frame=30409 fps=508 q=-0.0 size=N/A time=00:20:16.36 bitrate=N/A speed=20.3x    frame=30672 fps=507 q=-0.0 size=N/A time=00:20:26.88 bitrate=N/A speed=20.3x    frame=30935 fps=507 q=-0.0 size=N/A time=00:20:37.40 bitrate=N/A speed=20.3x    frame=31196 fps=507 q=-0.0 size=N/A time=00:20:47.84 bitrate=N/A speed=20.3x    frame=31454 fps=508 q=-0.0 size=N/A time=00:20:58.16 bitrate=N/A speed=20.3x    frame=31715 fps=507 q=-0.0 size=N/A time=00:21:08.60 bitrate=N/A speed=20.3x    frame=31974 fps=507 q=-0.0 size=N/A time=00:21:18.96 bitrate=N/A speed=20.3x    frame=32244 fps=507 q=-0.0 size=N/A time=00:21:29.76 bitrate=N/A speed=20.3x    frame=32504 fps=507 q=-0.0 size=N/A time=00:21:40.16 bitrate=N/A speed=20.3x    frame=32765 fps=508 q=-0.0 size=N/A time=00:21:50.60 bitrate=N/A speed=20.3x    frame=33031 fps=508 q=-0.0 size=N/A time=00:22:01.24 bitrate=N/A speed=20.3x    frame=33288 fps=507 q=-0.0 size=N/A time=00:22:11.52 bitrate=N/A speed=20.3x    frame=33557 fps=508 q=-0.0 size=N/A time=00:22:22.28 bitrate=N/A speed=20.3x    [Parsed_ssim_10 @ 0000027aa8e93380] SSIM Y:0.990796 (20.360449) U:0.992307 (21.138875) V:0.992611 (21.314238) All:0.991351 (20.630147)
[out#0/null @ 0000027aa619c740] video:14459KiB audio:126196KiB subtitle:0KiB other streams:0KiB global headers:0KiB muxing overhead: unknown
frame=33650 fps=508 q=-0.0 Lsize=N/A time=00:22:26.00 bitrate=N/A speed=20.3x    
